<svg width="48" height="48" viewBox="0 0 48 48" fill="none" xmlns="http://www.w3.org/2000/svg">
<rect x="-0.5" y="0.5" width="47" height="47" rx="23.5" transform="matrix(-1 0 0 1 47 0)" stroke="#1E1932"/>
<mask id="mask0_3312_10187" style="mask-type:alpha" maskUnits="userSpaceOnUse" x="12" y="12" width="24" height="24">
<rect x="36" y="36" width="24" height="24" transform="rotate(-180 36 36)" fill="#D9D9D9"/>
</mask>
<g mask="url(#mask0_3312_10187)">
<path d="M19.85 23L31 23C31.2833 23 31.5208 23.0958 31.7125 23.2875C31.9042 23.4792 32 23.7167 32 24C32 24.2833 31.9042 24.5208 31.7125 24.7125C31.5208 24.9042 31.2833 25 31 25L19.85 25L22.7 27.85C22.9 28.05 22.9958 28.2833 22.9875 28.55C22.9792 28.8167 22.8833 29.05 22.7 29.25C22.5 29.45 22.2625 29.5542 21.9875 29.5625C21.7125 29.5708 21.475 29.475 21.275 29.275L16.7 24.7C16.6 24.6 16.5292 24.4917 16.4875 24.375C16.4458 24.2583 16.425 24.1333 16.425 24C16.425 23.8667 16.4458 23.7417 16.4875 23.625C16.5292 23.5083 16.6 23.4 16.7 23.3L21.275 18.725C21.475 18.525 21.7125 18.4292 21.9875 18.4375C22.2625 18.4458 22.5 18.55 22.7 18.75C22.8833 18.95 22.9792 19.1833 22.9875 19.45C22.9958 19.7167 22.9 19.95 22.7 20.15L19.85 23Z" fill="#1E1932"/>
</g>
</svg>
